<?xml version="1.0" encoding="utf-8"?>
<svg xmlns="http://www.w3.org/2000/svg" width="40" height="40" viewBox="0 0 40 40" fill="none">
<path fill-rule="evenodd" clip-rule="evenodd" d="M19.9998 40C31.0455 40 39.9998 31.0457 39.9998 20C39.9998 8.95428 31.0455 -2.90573e-05 19.9998 -2.90573e-05C8.95414 -2.90573e-05 -0.00016275 8.95428 -0.00016275 20C-0.00016275 31.0457 8.95414 40 19.9998 40ZM9.99984 25.6156V14.3843C9.99984 11.9819 11.9818 9.99997 14.3842 9.99997H18.1714C18.7018 9.99997 19.2106 10.2107 19.5856 10.5858L21.7069 12.7071C21.8945 12.8946 22.1488 13 22.4141 13H25.9998C28.209 13 29.9998 14.7908 29.9998 17V25.6156C29.9998 28.018 28.0179 30 25.6155 30H14.3842C11.9818 30 9.99984 28.018 9.99984 25.6156ZM19.9998 16.5C19.4476 16.5 18.9998 16.9477 18.9998 17.5V21.5497C18.8386 21.5171 18.6714 21.5 18.4998 21.5C17.1336 21.5 15.9998 22.6046 15.9998 24C15.9998 25.3662 17.1045 26.5 18.4998 26.5C19.8661 26.5 20.9998 25.3662 20.9998 24V18.5H23.4998C24.0521 18.5 24.4998 18.0523 24.4998 17.5C24.4998 16.9477 24.0521 16.5 23.4998 16.5H19.9998Z" fill="#FCCDB5"/>
</svg>