<?xml version="1.0" encoding="utf-8"?>
<svg xmlns="http://www.w3.org/2000/svg" width="40" height="40" viewBox="0 0 40 40" fill="none">
<path fill-rule="evenodd" clip-rule="evenodd" d="M19.9998 40C31.0455 40 39.9998 31.0457 39.9998 20C39.9998 8.95428 31.0455 -2.90573e-05 19.9998 -2.90573e-05C8.95414 -2.90573e-05 -0.00016275 8.95428 -0.00016275 20C-0.00016275 31.0457 8.95414 40 19.9998 40ZM9.99984 20C9.99984 14.4771 14.477 9.99997 19.9998 9.99997C25.5227 9.99997 29.9998 14.4771 29.9998 20C29.9998 25.5228 25.5227 30 19.9998 30C14.477 30 9.99984 25.5228 9.99984 20ZM18.9982 15.5L17.2495 15.5C15.7307 15.5 14.4995 16.7312 14.4995 18.25C14.4995 19.7687 15.7307 21 17.2495 21H22.7495C23.1637 21 23.4995 21.3358 23.4995 21.75C23.4995 22.1642 23.1637 22.5 22.7495 22.5H15.9995C15.4472 22.5 14.9995 22.9477 14.9995 23.5C14.9995 24.0522 15.4472 24.5 15.9995 24.5L18.9982 24.5V26C18.9982 26.5522 19.4459 27 19.9982 27C20.5505 27 20.9982 26.5522 20.9982 26V24.5L22.7495 24.5C24.2683 24.5 25.4995 23.2687 25.4995 21.75C25.4995 20.2312 24.2683 19 22.7495 19H17.2495C16.8353 19 16.4995 18.6642 16.4995 18.25C16.4995 17.8357 16.8353 17.5 17.2495 17.5H23.9995C24.5518 17.5 24.9995 17.0522 24.9995 16.5C24.9995 15.9477 24.5518 15.5 23.9995 15.5L20.9982 15.5V14C20.9982 13.4477 20.5505 13 19.9982 13C19.4459 13 18.9982 13.4477 18.9982 14V15.5Z" fill="#CEF1FD"/>
</svg>