<?xml version="1.0" encoding="utf-8"?>
<svg xmlns="http://www.w3.org/2000/svg" width="40" height="40" viewBox="0 0 40 40" fill="none">
<path fill-rule="evenodd" clip-rule="evenodd" d="M20 40C31.0457 40 40 31.0457 40 20C40 8.9543 31.0457 0 20 0C8.95431 0 0 8.9543 0 20C0 31.0457 8.95431 40 20 40ZM27.25 19.25V18.625C27.25 13.8615 23.3885 10 18.625 10C13.8615 10 10 13.8615 10 18.625C10 23.3885 13.8615 27.25 18.625 27.25H19.25H19.5V19.5H27.25V19.25ZM22 22H30C30 26.4183 26.4183 30 22 30V22Z" fill="#3E0462"/>
</svg>