<svg width="32" height="32" viewBox="0 0 32 32" fill="none" xmlns="http://www.w3.org/2000/svg">
<rect width="32" height="32" rx="16" fill="#0F7EF3"/>
<path d="M7.73511 7.93903L23.354 14.7761L9.90622 25.3367L7.73511 7.93903Z" fill="white"/>
<path d="M11.012 24.2462L11.9724 23.2858C11.8806 23.0571 11.8043 22.8225 11.7439 22.5836L9.96315 15.9819L8.54786 10.6802L8.19925 9.38014C7.78409 7.83375 8.12376 6.64391 8.9938 6.0321C8.74915 6.07678 8.51399 6.16312 8.29856 6.28735C8.27659 6.29893 8.25536 6.31186 8.235 6.32609L8.21216 6.33999L8.15952 6.37376L8.12277 6.40157L8.08205 6.43136L8.00657 6.49096L7.98571 6.50685L7.92612 6.56147L7.90824 6.57736C7.88496 6.59737 7.86274 6.61858 7.8417 6.64093C7.24733 7.33654 6.94799 8.2367 7.00742 9.14972V22.8329C6.95792 23.6996 7.22197 24.5552 7.75132 25.2433C8.69485 25.6774 9.88568 25.3705 11.012 24.2462Z" fill="#276FB7"/>
<path d="M23.2638 13.4304L17.3454 10.0099L11.4161 6.58931C10.6916 6.1231 9.82728 5.92396 8.97184 6.02617C8.10479 6.63698 7.76809 7.82781 8.18325 9.37123L8.5408 10.6803C8.7855 10.7115 9.02775 10.7596 9.26582 10.8243L15.8795 12.5941L21.1771 14.0084L22.4812 14.357C24.0246 14.7722 24.8847 15.6571 24.99 16.7109C25.3932 15.5737 24.8142 14.3292 23.2638 13.4304Z" fill="#EF5F24"/>
<path d="M11.4322 25.3934L12.8505 24.5909L12.8783 24.575L17.3476 21.9817L23.277 18.5612C24.0519 18.1707 24.6612 17.5153 24.9942 16.7139C24.8949 15.6601 24.0338 14.7752 22.4854 14.36L21.1813 14.0114C21.0309 14.2101 20.867 14.3983 20.6907 14.5745L15.8489 19.4114L11.9755 23.2848L11.0151 24.2452C9.89078 25.3695 8.69796 25.6754 7.73755 25.2384C8.53111 26.1601 9.88582 26.2852 11.4322 25.3934Z" fill="#6EBD46"/>
</svg>
