<svg width="32" height="32" viewBox="0 0 32 32" fill="none" xmlns="http://www.w3.org/2000/svg">
<rect width="32" height="32" rx="16" fill="black"/>
<path d="M24.6741 6.02476L14.9691 11.4301C14.8954 11.4793 14.8462 11.553 14.8462 11.6267V16.1475L17.1066 17.5726V12.9534C17.1066 12.8797 17.1558 12.806 17.2295 12.7569L22.4137 9.85765C22.5611 9.78394 22.7577 9.88222 22.7577 10.0542V14.7962V18.6536C22.8068 19.7101 22.1434 20.6929 21.0869 21.0123C20.4481 21.2089 19.7602 21.1106 19.1951 20.7666L14.0108 17.4743L13.9863 17.4497C12.8069 16.7372 11.3819 16.5898 10.0797 17.032C8.97404 17.4251 8.04039 18.2114 7.49985 19.2679C6.95932 20.3244 6.83647 21.5283 7.15588 22.6585C7.49985 23.8624 8.28609 24.8452 9.36716 25.4349C10.0551 25.8034 10.8168 26 11.5784 26C12.0207 26 12.4629 25.9263 12.9052 25.8034C14.1583 25.4349 15.1902 24.5504 15.7553 23.371L15.829 23.1745L13.9126 21.946L13.716 22.4128C13.4212 23.0025 12.9052 23.4693 12.2664 23.6413C11.6521 23.8133 11.0133 23.7641 10.4482 23.4447C9.88312 23.1499 9.49001 22.6339 9.31802 22.0197C8.97404 20.8403 9.66199 19.5627 10.8168 19.145C11.0625 19.0467 11.3327 19.0222 11.5784 19.0222C11.9961 19.0222 12.4138 19.145 12.7824 19.3662L17.9666 22.6831H17.9912C18.7282 23.1253 19.539 23.3465 20.399 23.3465C20.8412 23.3465 21.2835 23.2728 21.7258 23.1499C23.7651 22.5357 25.0427 20.6684 25.0181 18.6291V6.22132C24.9935 6.04933 24.8216 5.95105 24.6741 6.02476Z" fill="white"/>
</svg>
