<svg width="32" height="32" viewBox="0 0 32 32" fill="none" xmlns="http://www.w3.org/2000/svg">
<rect width="32" height="32" rx="16" fill="url(#paint0_linear_778_5901)"/>
<path fill-rule="evenodd" clip-rule="evenodd" d="M6 19.7685C6 20.0323 6.09057 20.2292 6.27171 20.367C6.45285 20.5009 6.6458 20.5481 6.85056 20.5088C7.04351 20.4694 7.1774 20.3985 7.25615 20.2922C7.33491 20.1859 7.37429 20.0126 7.37429 19.7685V16.9057C7.37429 16.7009 7.30734 16.5277 7.17346 16.3859C7.03957 16.2441 6.87813 16.1733 6.68517 16.1733C6.5001 16.1733 6.33865 16.2441 6.20476 16.3859C6.07088 16.5277 6.00394 16.7009 6.00394 16.9057V19.7685H6ZM8.14215 20.9931C8.14215 21.1821 8.20516 21.3278 8.33117 21.4223C8.45718 21.5168 8.62256 21.5641 8.81945 21.5641C9.02422 21.5641 9.1896 21.5168 9.31561 21.4223C9.44162 21.3278 9.50463 21.1821 9.50463 20.9931V14.3186C9.50463 14.1217 9.43768 13.9523 9.3038 13.8106C9.16992 13.6688 9.00847 13.5979 8.81551 13.5979C8.63044 13.5979 8.46899 13.6688 8.33511 13.8106C8.20122 13.9523 8.13428 14.1217 8.13428 14.3186V20.9931H8.14215ZM10.2725 21.3081C10.2725 21.4971 10.3394 21.6428 10.4694 21.7373C10.5993 21.8318 10.7687 21.8791 10.9734 21.8791C11.1703 21.8791 11.3357 21.8318 11.4617 21.7373C11.5877 21.6428 11.6507 21.4971 11.6507 21.3081V15.2203C11.6507 15.0155 11.5838 14.8423 11.4499 14.6966C11.316 14.5509 11.1585 14.48 10.9695 14.48C10.7765 14.48 10.6111 14.5509 10.4773 14.6966C10.3394 14.8423 10.2725 15.0155 10.2725 15.2203V21.3081ZM12.4146 21.3396C12.4146 21.7019 12.643 21.883 13.1038 21.883C13.5645 21.883 13.7929 21.7019 13.7929 21.3396V11.4676C13.7929 10.9163 13.6354 10.6013 13.3164 10.5304C13.1116 10.4792 12.9108 10.5422 12.71 10.7194C12.5131 10.8966 12.4107 11.1486 12.4107 11.4715L12.4146 21.3396ZM14.5922 21.6271V10.8848C14.5922 10.5422 14.6867 10.3375 14.8797 10.2745C15.2971 10.1681 15.7066 10.1169 16.1162 10.1169C17.0652 10.1169 17.9512 10.3532 18.7702 10.8257C19.5893 11.2983 20.2508 11.948 20.7588 12.7671C21.2628 13.5861 21.5582 14.4879 21.6369 15.4763C22.015 15.3069 22.4206 15.2203 22.8458 15.2203C23.7161 15.2203 24.4564 15.5471 25.0746 16.1969C25.6929 16.8466 26 17.6302 26 18.5477C26 19.4692 25.6929 20.2567 25.0746 20.9065C24.4564 21.5562 23.7161 21.883 22.8537 21.883L14.7537 21.8712C14.6986 21.8515 14.6552 21.8161 14.6277 21.761C14.6001 21.7058 14.5922 21.6665 14.5922 21.6271Z" fill="white"/>
<defs>
<linearGradient id="paint0_linear_778_5901" x1="16" y1="0" x2="16" y2="32" gradientUnits="userSpaceOnUse">
<stop stop-color="#FF8801"/>
<stop offset="1" stop-color="#FF3501"/>
</linearGradient>
</defs>
</svg>
