<svg width="32" height="32" viewBox="0 0 32 32" fill="none" xmlns="http://www.w3.org/2000/svg">
  <rect width="32" height="32" rx="16" fill="#FCF103"/>
  <path d="M13.5793 6C15.0982 6 16.617 6 18.1819 6C18.1821 6.46133 18.1822 6.92267 18.1823 7.39798C18.1824 7.6965 18.1825 7.99503 18.1826 8.29355C18.1826 8.31285 18.1826 8.33214 18.1827 8.35144C18.1829 9.02005 18.1832 9.68866 18.1836 10.3573C18.1836 10.379 18.1836 10.4007 18.1836 10.4224C18.1839 10.8781 18.1841 11.3338 18.1844 11.7895C18.1846 12.0184 18.1847 12.2474 18.1848 12.4763C18.1849 12.5108 18.1849 12.5453 18.1849 12.5799C18.1852 13.1115 18.1855 13.6432 18.1856 14.1748C18.1856 14.1863 18.1856 14.1977 18.1856 14.2095C18.1857 14.3937 18.1857 14.578 18.1858 14.7623C18.1859 15.2931 18.186 15.8239 18.1864 16.3547C18.1864 16.3656 18.1864 16.3765 18.1864 16.3878C18.1865 16.6275 18.1867 16.8672 18.1869 17.1069C18.187 17.2034 18.187 17.2998 18.1871 17.3963C18.1871 17.4068 18.1871 17.4174 18.1871 17.4283C18.1874 17.7682 18.1875 18.1082 18.1874 18.4482C18.1874 18.7907 18.1876 19.1333 18.188 19.4758C18.188 19.5232 18.1881 19.5706 18.1881 19.618C18.1881 19.6272 18.1882 19.6365 18.1882 19.6461C18.1883 19.8019 18.1883 19.9576 18.1882 20.1134C18.1881 20.249 18.1882 20.3846 18.1885 20.5202C18.1886 20.5974 18.1887 20.6747 18.1885 20.7519C18.1884 20.8223 18.1885 20.8927 18.1888 20.963C18.1888 20.9883 18.1888 21.0135 18.1887 21.0387C18.1872 21.3262 18.2472 21.5699 18.4503 21.7836C18.5029 21.833 18.548 21.8643 18.617 21.8853C18.617 21.8946 18.617 21.9038 18.617 21.9134C19.2582 22.1021 20.0712 22.0055 20.6797 22.0116C20.6797 23.3268 20.6797 24.642 20.6797 25.997C20.0728 25.9978 20.0728 25.9978 19.4536 25.9987C19.2635 25.9991 19.2635 25.9991 19.0694 25.9995C18.9121 25.9996 18.9121 25.9996 18.838 25.9997C18.7873 25.9997 18.7366 25.9998 18.6859 25.9999C17.4781 26.0035 16.2725 25.845 15.2772 25.0989C15.2699 25.0934 15.2625 25.0879 15.2549 25.0822C15.2316 25.0648 15.2083 25.0472 15.1851 25.0296C15.1643 25.0138 15.1643 25.0138 15.143 24.9976C15.0254 24.9045 14.9184 24.7987 14.8124 24.6928C14.8006 24.6812 14.7888 24.6695 14.7766 24.6575C14.6986 24.5797 14.6286 24.4985 14.5615 24.4113C14.5509 24.3977 14.5509 24.3977 14.54 24.3839C14.4504 24.2704 14.3694 24.1527 14.2932 24.0297C14.2854 24.0171 14.2776 24.0046 14.2695 23.9916C14.2356 23.9359 14.2057 23.883 14.1827 23.8219C14.1734 23.8219 14.1641 23.8219 14.1546 23.8219C14.1494 23.8088 14.1442 23.7958 14.1388 23.7824C14.1195 23.7369 14.0966 23.6947 14.0722 23.6517C14.032 23.5795 14.0024 23.5059 13.9746 23.4282C13.9598 23.3874 13.9598 23.3874 13.9382 23.3555C13.9123 23.3102 13.8972 23.2658 13.8812 23.2162C13.8782 23.2067 13.8751 23.1972 13.872 23.1875C13.8656 23.1676 13.8592 23.1477 13.8529 23.1278C13.8432 23.0974 13.8334 23.067 13.8236 23.0366C13.7757 22.8875 13.7757 22.8875 13.7757 22.8396C13.7665 22.8396 13.7572 22.8396 13.7477 22.8396C13.7461 22.83 13.7446 22.8205 13.743 22.8107C13.7318 22.7448 13.7194 22.6813 13.6985 22.6177C13.674 22.5392 13.6638 22.4602 13.6534 22.3788C13.6455 22.3183 13.6369 22.2579 13.6284 22.1976C13.6267 22.1854 13.6251 22.1733 13.6233 22.1609C13.6217 22.149 13.62 22.1372 13.6183 22.125C13.6161 22.1094 13.6161 22.1094 13.6139 22.0936C13.6083 22.0559 13.6083 22.0559 13.6007 22.0285C13.5699 21.9033 13.5754 21.7756 13.5758 21.6476C13.5758 21.6203 13.5758 21.593 13.5757 21.5657C13.5756 21.4905 13.5757 21.4154 13.5758 21.3402C13.5759 21.2585 13.5759 21.1768 13.5758 21.0951C13.5758 20.9424 13.5758 20.7898 13.5759 20.6371C13.5761 20.4928 13.5761 20.3486 13.5761 20.2043C13.5761 20.1946 13.5761 20.1849 13.5761 20.1749C13.5761 20.1254 13.5761 20.0759 13.5761 20.0263C13.576 19.668 13.5761 19.3098 13.5763 18.9515C13.5765 18.5966 13.5766 18.2418 13.5766 17.887C13.5766 17.876 13.5766 17.865 13.5766 17.8536C13.5766 17.753 13.5766 17.6523 13.5766 17.5517C13.5767 17.3014 13.5767 17.0512 13.5767 16.801C13.5767 16.7896 13.5767 16.7782 13.5767 16.7665C13.5768 16.2123 13.577 15.6581 13.5772 15.1039C13.5772 14.9115 13.5773 14.7192 13.5773 14.5269C13.5773 14.515 13.5774 14.5031 13.5774 14.4908C13.5775 13.9363 13.5776 13.3817 13.5777 12.8272C13.5777 12.7912 13.5777 12.7552 13.5777 12.7192C13.5778 12.4807 13.5778 12.2421 13.5778 12.0035C13.5779 11.5288 13.578 11.0541 13.5781 10.5794C13.5781 10.5568 13.5781 10.5342 13.5781 10.5116C13.5782 9.81527 13.5784 9.11896 13.5786 8.42265C13.5786 8.39456 13.5786 8.36648 13.5786 8.33839C13.5788 7.55893 13.579 6.77946 13.5793 6Z" fill="black"/>
  <path d="M19.3052 10.1818C19.3237 10.1818 19.3422 10.1818 19.3613 10.1818C19.3613 10.1911 19.3613 10.2003 19.3613 10.2099C19.3758 10.2152 19.3758 10.2152 19.3906 10.2206C19.4376 10.2406 19.4806 10.2654 19.5242 10.2916C19.5331 10.2969 19.5421 10.3022 19.5513 10.3077C19.5803 10.3251 19.6094 10.3425 19.6384 10.3599C19.6586 10.3719 19.6788 10.3839 19.6989 10.3959C19.794 10.4526 19.8889 10.5096 19.9837 10.5666C19.9994 10.576 20.0151 10.5854 20.0312 10.5951C20.0603 10.6126 20.0893 10.6301 20.1183 10.6476C20.206 10.7005 20.294 10.7534 20.3857 10.7993C20.3857 10.8085 20.3857 10.8178 20.3857 10.8273C20.3954 10.8285 20.4052 10.8297 20.4152 10.831C20.465 10.8437 20.5021 10.8678 20.5444 10.8958C20.6594 10.9696 20.7767 11.0394 20.8944 11.1089C21.0397 11.1948 21.1844 11.2814 21.3285 11.3694C21.4686 11.4548 21.6096 11.5384 21.7514 11.6211C21.877 11.6943 22.0016 11.769 22.1257 11.8447C22.2781 11.9378 22.4316 12.0289 22.5859 12.1188C22.6775 12.1721 22.7686 12.2261 22.8594 12.2807C22.9485 12.3343 23.038 12.3873 23.1274 12.4404C23.1562 12.4574 23.1849 12.4745 23.2137 12.4916C23.2234 12.4974 23.2331 12.5031 23.2432 12.5091C23.2629 12.5208 23.2825 12.5325 23.3022 12.5442C23.358 12.5774 23.4139 12.6104 23.4699 12.6434C23.495 12.6582 23.5201 12.673 23.5452 12.6879C23.5759 12.7061 23.6067 12.7242 23.6375 12.7422C23.651 12.7503 23.6646 12.7583 23.6785 12.7666C23.6963 12.777 23.6963 12.777 23.7144 12.7877C23.7227 12.7937 23.7309 12.7998 23.7395 12.806C23.7395 12.8153 23.7395 12.8245 23.7395 12.8341C23.7083 12.8554 23.7083 12.8554 23.6643 12.8806C23.6563 12.8852 23.6483 12.8898 23.6401 12.8946C23.6228 12.9046 23.6054 12.9146 23.588 12.9245C23.5413 12.9512 23.4948 12.9782 23.4483 13.0051C23.4387 13.0107 23.4291 13.0163 23.4193 13.022C23.3202 13.0795 23.2224 13.1391 23.1247 13.1989C23.0183 13.2639 22.9116 13.328 22.8023 13.3881C22.7079 13.4405 22.616 13.497 22.5239 13.5532C22.4068 13.6247 22.2895 13.6959 22.1713 13.7655C22.1533 13.7761 22.1533 13.7761 22.1349 13.787C22.109 13.8022 22.0832 13.8174 22.0574 13.8326C21.7184 14.0321 21.7184 14.0321 21.383 14.2376C21.2639 14.3118 21.1431 14.3831 21.0223 14.4545C20.8876 14.5342 20.7534 14.6146 20.6198 14.6961C20.4474 14.8012 20.2738 14.9044 20.0999 15.0071C20.0152 15.0572 19.9305 15.1073 19.8458 15.1576C19.8264 15.1691 19.8069 15.1806 19.7875 15.1921C19.6634 15.2656 19.5397 15.3395 19.4179 15.4169C19.3518 15.4582 19.3518 15.4582 19.3052 15.4582C19.3052 13.717 19.3052 11.9758 19.3052 10.1818Z" fill="black"/>
  <path d="M10.9131 10.4485C11.4225 10.4485 11.9318 10.4485 12.4567 10.4485C12.4567 11.9859 12.4567 13.5234 12.4567 15.1074C11.9473 15.1074 11.4379 15.1074 10.9131 15.1074C10.9131 13.57 10.9131 12.0325 10.9131 10.4485Z" fill="black"/>
  <path d="M8.26074 10.4485C8.77012 10.4485 9.2795 10.4485 9.80432 10.4485C9.80432 11.9813 9.80432 13.5141 9.80432 15.0934C9.29494 15.0934 8.78556 15.0934 8.26074 15.0934C8.26074 13.5606 8.26074 12.0278 8.26074 10.4485Z" fill="black"/>
</svg>
