<svg width="32" height="32" viewBox="0 0 32 32" fill="none" xmlns="http://www.w3.org/2000/svg">
<g clip-path="url(#clip0_1042_6064)">
<rect width="32" height="32" rx="16" fill="black"/>
<circle cx="16" cy="16" r="16" fill="#F05A24"/>
<path fill-rule="evenodd" clip-rule="evenodd" d="M7.19993 5.86664L6.2666 6.66664L9.53222 9.80666C7.76339 11.6205 6.66667 14.1435 6.66667 16.9333C7.35851 17.7866 8.03839 18.6438 8.70009 19.4782L8.70011 19.4782L8.70011 19.4782C11.8641 23.4678 14.6126 26.9333 16.2667 26.9333C17.7333 26.9333 23.4667 20.6666 25.4667 16.5333C25.4667 13.8517 24.5477 11.511 22.9952 9.81225L26.2667 6.66664L25.3333 5.86664L22.5725 9.38045C20.9579 7.84119 18.7686 6.9333 16.2667 6.9333C13.8558 6.9333 11.6526 7.859 9.96655 9.38778L7.19993 5.86664ZM20.0708 22.7495C21.8634 20.7488 23.6888 18.2958 24.6651 16.35C24.5808 11.3315 21.0366 7.7333 16.2667 7.7333C11.525 7.7333 7.61159 11.6736 7.4706 16.655C8.11247 17.4495 8.73805 18.2384 9.34505 19.0038L9.34517 19.004C10.5871 20.5701 11.7513 22.0382 12.8184 23.2561C13.634 24.1871 14.3611 24.9341 14.9891 25.443C15.6402 25.9707 16.0481 26.1275 16.2551 26.1331C16.2546 26.1331 16.2544 26.133 16.2544 26.1328C16.2543 26.1323 16.2576 26.1312 16.2644 26.1289L16.2645 26.1289C16.2954 26.1185 16.3985 26.0838 16.5915 25.9688C16.8413 25.8198 17.1567 25.5886 17.5266 25.2774C18.2637 24.6572 19.153 23.7738 20.0708 22.7495Z" fill="white"/>
<path d="M9.46686 19.3186C12.4535 20.812 14.178 20.0742 14.6669 19.452C14.978 18.3853 14.2669 16.002 11.3335 15.452C7.9202 14.8119 6.44465 15.5408 6.13354 15.9853C6.00021 16.5186 6.4802 17.8253 9.46686 19.3186Z" fill="white"/>
<path fill-rule="evenodd" clip-rule="evenodd" d="M15.1496 19.7003L15.0859 19.7815C14.3712 20.691 12.3229 21.3431 9.22796 19.7957C7.6951 19.0292 6.75814 18.2881 6.21778 17.6306C5.68781 16.9857 5.49114 16.3544 5.61575 15.8559L5.63967 15.7603L5.69623 15.6795C5.96992 15.2885 6.5834 14.9557 7.47073 14.7879C8.38659 14.6147 9.678 14.599 11.4314 14.9278C14.66 15.5331 15.582 18.2179 15.1785 19.6013L15.1496 19.7003ZM14.6665 19.452C14.9776 18.3853 14.2665 16.002 11.3331 15.452C7.91982 14.812 6.44426 15.5409 6.13316 15.9853C5.99982 16.5186 6.47981 17.8253 9.46648 19.3186C12.4531 20.812 14.1776 20.0742 14.6665 19.452Z" fill="#F05A24"/>
<path d="M22.3342 19.4372C19.3475 20.9306 17.6231 20.1928 17.1342 19.5705C16.8231 18.5039 17.5342 16.1206 20.4675 15.5705C23.8808 14.9305 25.3564 15.6594 25.6675 16.1039C25.8008 16.6372 25.3208 17.9439 22.3342 19.4372Z" fill="white"/>
<path fill-rule="evenodd" clip-rule="evenodd" d="M16.651 19.8189L16.6221 19.7199C16.2186 18.3365 17.1406 15.6517 20.3692 15.0464C22.1226 14.7176 23.414 14.7333 24.3299 14.9065C25.2172 15.0743 25.8307 15.4071 26.1044 15.798L26.1609 15.8789L26.1849 15.9745C26.3095 16.473 26.1128 17.1043 25.5828 17.7492C25.0425 18.4067 24.1055 19.1478 22.5727 19.9143C19.4777 21.4617 17.4294 20.8096 16.7148 19.9001L16.651 19.8189ZM17.1341 19.5706C17.623 20.1928 19.3475 20.9306 22.3341 19.4372C25.3208 17.9439 25.8008 16.6372 25.6675 16.1039C25.3564 15.6594 23.8808 14.9305 20.4675 15.5706C17.5341 16.1206 16.823 18.5039 17.1341 19.5706Z" fill="#F05A24"/>
</g>
<defs>
<clipPath id="clip0_1042_6064">
<rect width="32" height="32" rx="16" fill="white"/>
</clipPath>
</defs>
</svg>
