<?xml version="1.0" encoding="utf-8"?>
<svg xmlns="http://www.w3.org/2000/svg" width="40" height="40" viewBox="0 0 40 40" fill="none">
<path fill-rule="evenodd" clip-rule="evenodd" d="M19.9998 40C31.0455 40 39.9998 31.0457 39.9998 20C39.9998 8.95428 31.0455 -2.90573e-05 19.9998 -2.90573e-05C8.95414 -2.90573e-05 -0.00016275 8.95428 -0.00016275 20C-0.00016275 31.0457 8.95414 40 19.9998 40ZM22.308 28.2052C21.7416 28.2052 21.2824 27.746 21.2824 27.1796V12.8206C21.2824 12.2542 21.7416 11.795 22.308 11.795H23.3337C23.9001 11.795 24.3593 12.2542 24.3593 12.8206V27.1796C24.3593 27.746 23.9001 28.2052 23.3337 28.2052H22.308ZM15.6411 27.1796C15.6411 27.746 16.1003 28.2052 16.6668 28.2052H17.6924C18.2588 28.2052 18.718 27.746 18.718 27.1796V16.9232C18.718 16.3567 18.2588 15.8975 17.6924 15.8975H16.6668C16.1003 15.8975 15.6411 16.3567 15.6411 16.9232V27.1796ZM9.99984 27.1796C9.99984 27.746 10.459 28.2052 11.0255 28.2052H12.0511C12.6176 28.2052 13.0768 27.746 13.0768 27.1796V21.0257C13.0768 20.4593 12.6176 20.0001 12.0511 20.0001H11.0255C10.459 20.0001 9.99984 20.4593 9.99984 21.0257V27.1796ZM26.9237 27.1796C26.9237 27.746 27.3829 28.2052 27.9493 28.2052H28.9749C29.5414 28.2052 30.0006 27.746 30.0006 27.1796V20.0001C30.0006 19.4337 29.5414 18.9745 28.9749 18.9745H27.9493C27.3829 18.9745 26.9237 19.4337 26.9237 20.0001V27.1796Z" fill="#FCCDB5"/>
</svg>