<?xml version="1.0" encoding="utf-8"?>
<svg xmlns="http://www.w3.org/2000/svg" width="40" height="40" viewBox="0 0 40 40" fill="none">
<path fill-rule="evenodd" clip-rule="evenodd" d="M19.9998 40C31.0455 40 39.9998 31.0457 39.9998 20C39.9998 8.95428 31.0455 -2.90573e-05 19.9998 -2.90573e-05C8.95414 -2.90573e-05 -0.00016275 8.95428 -0.00016275 20C-0.00016275 31.0457 8.95414 40 19.9998 40ZM20.0034 19.7763L11.622 14.8871L17.638 11.3777C19.0975 10.5264 20.9023 10.5264 22.3618 11.3777L28.4422 14.9246L20.0034 19.7763ZM21.0078 30V21.5254L29.3643 16.721V22.399C29.3643 24.0592 28.4861 25.5956 27.0556 26.4381L21.0078 30ZM18.9909 29.9993V21.5207L10.6356 16.6467V22.399C10.6356 24.0592 11.5137 25.5956 12.9442 26.4381L18.9909 29.9993Z" fill="#FCF7B5"/>
</svg>